<?xml version="1.0" encoding="UTF-8"?>
<svg id="_图层_2" data-name="图层 2" xmlns="http://www.w3.org/2000/svg" viewBox="0 0 663.21 86.11">
  <defs>
    <style>
      .cls-1 {
        fill: #231815;
      }

      .cls-2 {
        fill: #fff;
      }

      .cls-3 {
        fill: #8c2126;
      }
    </style>
  </defs>
  <g id="_圖層_1" data-name="圖層 1">
    <g>
      <g>
        <rect class="cls-2" x="10.12" y="55.61" width="10.16" height="20.29"/>
        <path class="cls-2" d="M30.37,75.9v-24.04s-16.42-8.85-16.42-8.85c-2.37-1.28-3.84-3.74-3.84-6.43V10.04h10.16v5.06h20.25v20.29h-10.16v-10.13h-10.09v9.61l16.41,8.85c2.37,1.28,3.84,3.74,3.84,6.43v25.74s-10.16,0-10.16,0Z"/>
        <polygon class="cls-2" points="75.97 75.9 45.56 75.9 45.56 10.04 55.72 10.04 55.72 65.74 65.81 65.74 65.81 45.49 75.97 45.49 75.97 75.9"/>
        <rect class="cls-2" x="65.81" y="15.11" width="10.16" height="15.22"/>
        <path class="cls-3" d="M85.05,0H1.06C.47,0,0,.47,0,1.06v84c0,.58.47,1.06,1.06,1.06h84c.58,0,1.06-.47,1.06-1.06V1.06c0-.58-.47-1.06-1.06-1.06ZM20.28,75.9h-10.16v-20.29h10.16v20.29ZM30.37,75.9v-24.04s-16.42-8.85-16.42-8.85c-2.37-1.28-3.84-3.74-3.84-6.43V10.04h10.16v5.06h20.25v20.29h-10.16v-10.13h-10.09v9.61l16.41,8.85c2.37,1.28,3.84,3.74,3.84,6.43v25.74s-10.16,0-10.16,0ZM75.97,75.9h-30.41V10.04h10.16v55.69h10.09v-20.25h10.16v30.41ZM75.97,30.33h-10.16v-15.22h10.16v15.22Z"/>
      </g>
      <g>
        <g>
          <path class="cls-1" d="M142.54,12.78h-25.7c-.63,0-1.14-.48-1.14-1.08v-5c0-.6.51-1.08,1.14-1.08h25.7c.63,0,1.14.48,1.14,1.08v5c0,.6-.51,1.08-1.14,1.08Z"/>
          <path class="cls-1" d="M191.59,19.4h-42.21c-.63,0-1.14-.48-1.14-1.08v-5c0-.6.51-1.08,1.14-1.08h42.21c.63,0,1.14.48,1.14,1.08v5c0,.6-.51,1.08-1.14,1.08Z"/>
          <path class="cls-1" d="M189.22,39.25h-37.46c-.63,0-1.14-.48-1.14-1.08v-5c0-.6.51-1.08,1.14-1.08h37.46c.63,0,1.14.48,1.14,1.08v5c0,.6-.51,1.08-1.14,1.08Z"/>
          <path class="cls-1" d="M191.59,59.1h-42.21c-.63,0-1.14-.48-1.14-1.08v-5c0-.6.51-1.08,1.14-1.08h42.21c.63,0,1.14.48,1.14,1.08v5c0,.6-.51,1.08-1.14,1.08Z"/>
          <path class="cls-1" d="M144.37,28.35h-29.37c-.63,0-1.14-.48-1.14-1.08v-5c0-.6.51-1.08,1.14-1.08h29.37c.63,0,1.14.48,1.14,1.08v5c0,.6-.51,1.08-1.14,1.08Z"/>
          <path class="cls-1" d="M132.33,84.07h-5.28c-.63,0-1.14-.48-1.14-1.08V25.85c0-.6.51-1.08,1.14-1.08h5.28c.63,0,1.14.48,1.14,1.08v57.14c0,.6-.51,1.08-1.14,1.08Z"/>
          <path class="cls-1" d="M173.13,84.07h-5.28c-.63,0-1.14-.48-1.14-1.08V19.77c0-.6.51-1.08,1.14-1.08h5.28c.63,0,1.14.48,1.14,1.08v63.22c0,.6-.51,1.08-1.14,1.08Z"/>
          <path class="cls-1" d="M143.52,72.93h-5.28c-.63,0-1.14-.48-1.14-1.08v-33.4c0-.6.51-1.08,1.14-1.08h5.28c.63,0,1.14.48,1.14,1.08v33.4c0,.6-.51,1.08-1.14,1.08Z"/>
          <path class="cls-1" d="M117.83,75.83l-5.06-1.45c-.59-.17-.93-.75-.77-1.32.8-2.76,2.89-10.65,2.89-17.46v-17.94c0-.6.51-1.08,1.14-1.08h5.28c.63,0,1.14.48,1.14,1.08v17.94c0,7.84-2.32,16.5-3.19,19.48-.17.58-.82.92-1.43.74Z"/>
          <path class="cls-1" d="M178.84,17.79l-3.05-4.21c-.27-.37-.28-.85,0-1.22,1.29-1.73,2.25-6.52,2.4-10.67.02-.59.52-1.05,1.14-1.05h5.29c.64,0,1.15.5,1.14,1.1-.21,9.99-3.28,14.42-5.16,16.2-.5.48-1.34.4-1.75-.15Z"/>
          <path class="cls-1" d="M159.78,17.94c-1.88-1.78-4.95-6.21-5.16-16.2-.01-.6.5-1.1,1.14-1.1h5.29c.62,0,1.12.46,1.14,1.05.15,4.16,1.1,8.94,2.4,10.67.27.36.26.85,0,1.22l-3.05,4.21c-.4.56-1.24.63-1.75.15Z"/>
        </g>
        <g>
          <path class="cls-1" d="M261.43,24.85h-44.71c-.63,0-1.14-.48-1.14-1.08v-5c0-.6.51-1.08,1.14-1.08h44.71c.63,0,1.14.48,1.14,1.08v5c0,.6-.51,1.08-1.14,1.08Z"/>
          <path class="cls-1" d="M263.88,71.85h-49.6c-.63,0-1.14-.48-1.14-1.08v-5c0-.6.51-1.08,1.14-1.08h49.6c.63,0,1.14.48,1.14,1.08v5c0,.6-.51,1.08-1.14,1.08Z"/>
          <path class="cls-1" d="M241.72,80.34h-5.28c-.63,0-1.14-.48-1.14-1.08v-21.98c0-.6.51-1.08,1.14-1.08h5.28c.63,0,1.14.48,1.14,1.08v21.98c0,.6-.51,1.08-1.14,1.08Z"/>
          <g>
            <path class="cls-1" d="M241.72,9.59h-5.28c-.63,0-1.14-.48-1.14-1.08V1.62c0-.6.51-1.08,1.14-1.08h5.28c.63,0,1.14.48,1.14,1.08v6.9c0,.6-.51,1.08-1.14,1.08Z"/>
            <path class="cls-1" d="M206.04,24.65h-5.28c-.63,0-1.14-.48-1.14-1.08V7.09c0-.6.51-1.08,1.14-1.08h76.66c.63,0,1.14.48,1.14,1.08v2.5c0,4.13-.14,8.91-1.14,13.47-.13.59-.76.97-1.38.83l-5.14-1.16c-.6-.14-.97-.7-.85-1.27.51-2.4.75-4.94.86-7.15.03-.62-.49-1.13-1.14-1.13h-61.44c-.63,0-1.14.48-1.14,1.08v9.31c0,.6-.51,1.08-1.14,1.08Z"/>
          </g>
          <path class="cls-1" d="M264.26,48.3h-50.35c-.63,0-1.14-.48-1.14-1.08v-17.67c0-.6.51-1.08,1.14-1.08h50.35c.63,0,1.14.48,1.14,1.08v17.67c0,.6-.51,1.08-1.14,1.08ZM221.47,41.14h35.22c.63,0,1.14-.48,1.14-1.08v-3.34c0-.6-.51-1.08-1.14-1.08h-35.22c-.63,0-1.14.48-1.14,1.08v3.34c0,.6.51,1.08,1.14,1.08Z"/>
          <path class="cls-1" d="M270.66,83.92h-63.17c-.63,0-1.14-.48-1.14-1.08v-29.14c0-.6.51-1.08,1.14-1.08h63.17c.63,0,1.14.48,1.14,1.08v29.14c0,.6-.51,1.08-1.14,1.08ZM215.06,76.76h48.04c.63,0,1.14-.48,1.14-1.08v-14.82c0-.6-.51-1.08-1.14-1.08h-48.04c-.63,0-1.14.48-1.14,1.08v14.82c0,.6.51,1.08,1.14,1.08Z"/>
        </g>
        <g>
          <path class="cls-1" d="M563.85,81.96h-38.01c-3.28,0-5.95-2.51-5.95-5.59V25.93c0-.6-.51-1.08-1.14-1.08h-20.83c-.63,0-1.14-.48-1.14-1.08v-5c0-.6.51-1.08,1.14-1.08h28.39c.63,0,1.14.48,1.14,1.08v54.95c0,.6.51,1.08,1.14,1.08h35.26c4.46,0,6.48-3.08,7.22-4.67.23-.49.8-.75,1.35-.6l5.13,1.36c.65.17,1,.83.76,1.43-1.57,3.86-6.05,9.65-14.45,9.65Z"/>
          <path class="cls-1" d="M501.1,83.92c-.46.47-1.21.46-1.67,0l-3.2-3.26c-.84-.86-.82-1.3-.05-2.26,2.54-3.17,9.57-12.15,9.57-28.02V1.72c0-.6.51-1.08,1.14-1.08h5.28c.63,0,1.14.48,1.14,1.08v48.66c0,19.51-9.28,30.55-12.21,33.54Z"/>
          <path class="cls-1" d="M564.47,41.12h-26.38c-.63,0-1.14-.48-1.14-1.08v-5c0-.6.51-1.08,1.14-1.08h26.38c.63,0,1.14.48,1.14,1.08v5c0,.6-.51,1.08-1.14,1.08Z"/>
          <path class="cls-1" d="M568.25,66.6h-33.69c-.63,0-1.14-.48-1.14-1.08V9.57c0-.6.51-1.08,1.14-1.08h33.69c.63,0,1.14.48,1.14,1.08v55.95c0,.6-.51,1.08-1.14,1.08ZM542.13,59.43h18.56c.63,0,1.14-.48,1.14-1.08V16.73c0-.6-.51-1.08-1.14-1.08h-18.56c-.63,0-1.14.48-1.14,1.08v41.62c0,.6.51,1.08,1.14,1.08Z"/>
        </g>
        <g>
          <path class="cls-1" d="M622.45,14.66h-35.41c-.63,0-1.14-.48-1.14-1.08v-5c0-.6.51-1.08,1.14-1.08h35.41c.63,0,1.14.48,1.14,1.08v5c0,.6-.51,1.08-1.14,1.08Z"/>
          <path class="cls-1" d="M660.39,16.41h-26.86c-.63,0-1.14-.48-1.14-1.08v-5c0-.6.51-1.08,1.14-1.08h26.86c.63,0,1.14.48,1.14,1.08v5c0,.6-.51,1.08-1.14,1.08Z"/>
          <path class="cls-1" d="M658.45,50.1h-24.92c-.63,0-1.14-.48-1.14-1.08v-5c0-.6.51-1.08,1.14-1.08h24.92c.63,0,1.14.48,1.14,1.08v5c0,.6-.51,1.08-1.14,1.08Z"/>
          <path class="cls-1" d="M658.45,60.97h-24.92c-.63,0-1.14-.48-1.14-1.08v-5c0-.6.51-1.08,1.14-1.08h24.92c.63,0,1.14.48,1.14,1.08v5c0,.6-.51,1.08-1.14,1.08Z"/>
          <path class="cls-1" d="M658.45,71.85h-24.92c-.63,0-1.14-.48-1.14-1.08v-5c0-.6.51-1.08,1.14-1.08h24.92c.63,0,1.14.48,1.14,1.08v5c0,.6-.51,1.08-1.14,1.08Z"/>
          <path class="cls-1" d="M623.98,31.6h-38.48c-.63,0-1.14-.48-1.14-1.08v-5c0-.6.51-1.08,1.14-1.08h38.48c.63,0,1.14.48,1.14,1.08v5c0,.6-.51,1.08-1.14,1.08Z"/>
          <path class="cls-1" d="M617.59,55.92h-24.93c-.63,0-1.14-.48-1.14-1.08v-5c0-.6.51-1.08,1.14-1.08h24.93c.63,0,1.14.48,1.14,1.08v5c0,.6-.51,1.08-1.14,1.08Z"/>
          <path class="cls-1" d="M617.59,68.82h-24.93c-.63,0-1.14-.48-1.14-1.08v-5c0-.6.51-1.08,1.14-1.08h24.93c.63,0,1.14.48,1.14,1.08v5c0,.6-.51,1.08-1.14,1.08Z"/>
          <path class="cls-1" d="M607.38,10.08h-5.28c-.63,0-1.14-.48-1.14-1.08V1.62c0-.6.51-1.08,1.14-1.08h5.28c.63,0,1.14.48,1.14,1.08v7.38c0,.6-.51,1.08-1.14,1.08Z"/>
          <path class="cls-1" d="M598.52,28.41h-5.28c-.63,0-1.14-.48-1.14-1.08v-13.12c0-.6.51-1.08,1.14-1.08h5.28c.63,0,1.14.48,1.14,1.08v13.12c0,.6-.51,1.08-1.14,1.08Z"/>
          <path class="cls-1" d="M619.89,85.19c-.32.55-1.06.72-1.61.39l-4.47-2.69c-.5-.3-.67-.91-.4-1.41.66-1.19,1.54-3.15,1.54-4.67v-32.58c0-.6-.51-1.08-1.14-1.08h-17.37c-.63,0-1.14.48-1.14,1.08v38.95c0,.6-.51,1.08-1.14,1.08h-5.28c-.63,0-1.14-.48-1.14-1.08v-46.11c0-.6.51-1.08,1.14-1.08h32.49c.63,0,1.14.48,1.14,1.08v39.74c0,3.38-1.67,6.74-2.62,8.38Z"/>
          <path class="cls-1" d="M616.25,28.41h-5.28c-.63,0-1.14-.48-1.14-1.08v-13.12c0-.6.51-1.08,1.14-1.08h5.28c.63,0,1.14.48,1.14,1.08v13.12c0,.6-.51,1.08-1.14,1.08Z"/>
          <path class="cls-1" d="M653.3,83.92h-18.69c-3.31,0-6-2.51-6-5.59v-45.17c0-.6.51-1.08,1.14-1.08h22.94c.63,0,1.14-.48,1.14-1.08v-2.65c0-.6-.51-1.08-1.14-1.08h-22.94c-.63,0-1.14-.48-1.14-1.08V3.51c0-.6.51-1.08,1.14-1.08h5.28c.63,0,1.14.48,1.14,1.08v15.53c0,.6.51,1.08,1.14,1.08h22.94c.63,0,1.14.48,1.14,1.08v16.97c0,.6-.51,1.08-1.14,1.08h-22.94c-.63,0-1.14.48-1.14,1.08v35.35c0,.6.51,1.08,1.14,1.08h15.99c1.54,0,3.78-.99,5.2-1.77.52-.28,1.17-.14,1.51.32l3,4.13c.37.51.21,1.22-.35,1.54-1.81,1.03-5.66,2.93-9.36,2.93Z"/>
        </g>
        <rect class="cls-1" x="385.41" y="4.11" width="4.65" height="78.13" rx="1.67" ry="1.67"/>
        <g>
          <path class="cls-1" d="M440.58,13.13h-25.7c-.63,0-1.14-.48-1.14-1.08v-5c0-.6.51-1.08,1.14-1.08h25.7c.63,0,1.14.48,1.14,1.08v5c0,.6-.51,1.08-1.14,1.08Z"/>
          <path class="cls-1" d="M489.64,19.75h-42.21c-.63,0-1.14-.48-1.14-1.08v-5c0-.6.51-1.08,1.14-1.08h42.21c.63,0,1.14.48,1.14,1.08v5c0,.6-.51,1.08-1.14,1.08Z"/>
          <path class="cls-1" d="M487.26,39.6h-37.46c-.63,0-1.14-.48-1.14-1.08v-5c0-.6.51-1.08,1.14-1.08h37.46c.63,0,1.14.48,1.14,1.08v5c0,.6-.51,1.08-1.14,1.08Z"/>
          <path class="cls-1" d="M489.64,59.45h-42.21c-.63,0-1.14-.48-1.14-1.08v-5c0-.6.51-1.08,1.14-1.08h42.21c.63,0,1.14.48,1.14,1.08v5c0,.6-.51,1.08-1.14,1.08Z"/>
          <path class="cls-1" d="M442.42,28.7h-29.37c-.63,0-1.14-.48-1.14-1.08v-5c0-.6.51-1.08,1.14-1.08h29.37c.63,0,1.14.48,1.14,1.08v5c0,.6-.51,1.08-1.14,1.08Z"/>
          <path class="cls-1" d="M430.38,84.42h-5.28c-.63,0-1.14-.48-1.14-1.08V26.2c0-.6.51-1.08,1.14-1.08h5.28c.63,0,1.14.48,1.14,1.08v57.14c0,.6-.51,1.08-1.14,1.08Z"/>
          <path class="cls-1" d="M471.17,84.42h-5.28c-.63,0-1.14-.48-1.14-1.08V20.12c0-.6.51-1.08,1.14-1.08h5.28c.63,0,1.14.48,1.14,1.08v63.22c0,.6-.51,1.08-1.14,1.08Z"/>
          <path class="cls-1" d="M441.57,73.29h-5.28c-.63,0-1.14-.48-1.14-1.08v-33.4c0-.6.51-1.08,1.14-1.08h5.28c.63,0,1.14.48,1.14,1.08v33.4c0,.6-.51,1.08-1.14,1.08Z"/>
          <path class="cls-1" d="M415.87,76.19l-5.06-1.45c-.59-.17-.93-.75-.77-1.32.8-2.76,2.89-10.65,2.89-17.46v-17.94c0-.6.51-1.08,1.14-1.08h5.28c.63,0,1.14.48,1.14,1.08v17.94c0,7.84-2.32,16.5-3.19,19.48-.17.58-.82.92-1.43.74Z"/>
          <path class="cls-1" d="M476.88,18.14l-3.05-4.21c-.27-.37-.28-.85,0-1.22,1.29-1.73,2.25-6.52,2.4-10.67.02-.59.52-1.05,1.14-1.05h5.29c.64,0,1.15.5,1.14,1.1-.21,9.99-3.28,14.42-5.16,16.2-.5.48-1.34.4-1.75-.15Z"/>
          <path class="cls-1" d="M457.83,18.29c-1.88-1.78-4.95-6.21-5.16-16.2-.01-.6.5-1.1,1.14-1.1h5.29c.62,0,1.12.46,1.14,1.05.15,4.16,1.1,8.94,2.4,10.67.27.36.26.85,0,1.22l-3.05,4.21c-.4.56-1.24.63-1.75.15Z"/>
        </g>
        <g>
          <path class="cls-1" d="M325.35,14.66h-35.41c-.63,0-1.14-.48-1.14-1.08v-5c0-.6.51-1.08,1.14-1.08h35.41c.63,0,1.14.48,1.14,1.08v5c0,.6-.51,1.08-1.14,1.08Z"/>
          <path class="cls-1" d="M363.3,16.41h-26.86c-.63,0-1.14-.48-1.14-1.08v-5c0-.6.51-1.08,1.14-1.08h26.86c.63,0,1.14.48,1.14,1.08v5c0,.6-.51,1.08-1.14,1.08Z"/>
          <path class="cls-1" d="M361.36,50.1h-24.92c-.63,0-1.14-.48-1.14-1.08v-5c0-.6.51-1.08,1.14-1.08h24.92c.63,0,1.14.48,1.14,1.08v5c0,.6-.51,1.08-1.14,1.08Z"/>
          <path class="cls-1" d="M361.36,60.97h-24.92c-.63,0-1.14-.48-1.14-1.08v-5c0-.6.51-1.08,1.14-1.08h24.92c.63,0,1.14.48,1.14,1.08v5c0,.6-.51,1.08-1.14,1.08Z"/>
          <path class="cls-1" d="M361.36,71.85h-24.92c-.63,0-1.14-.48-1.14-1.08v-5c0-.6.51-1.08,1.14-1.08h24.92c.63,0,1.14.48,1.14,1.08v5c0,.6-.51,1.08-1.14,1.08Z"/>
          <path class="cls-1" d="M326.88,31.6h-38.48c-.63,0-1.14-.48-1.14-1.08v-5c0-.6.51-1.08,1.14-1.08h38.48c.63,0,1.14.48,1.14,1.08v5c0,.6-.51,1.08-1.14,1.08Z"/>
          <path class="cls-1" d="M320.49,55.92h-24.93c-.63,0-1.14-.48-1.14-1.08v-5c0-.6.51-1.08,1.14-1.08h24.93c.63,0,1.14.48,1.14,1.08v5c0,.6-.51,1.08-1.14,1.08Z"/>
          <path class="cls-1" d="M320.49,68.82h-24.93c-.63,0-1.14-.48-1.14-1.08v-5c0-.6.51-1.08,1.14-1.08h24.93c.63,0,1.14.48,1.14,1.08v5c0,.6-.51,1.08-1.14,1.08Z"/>
          <path class="cls-1" d="M310.29,10.08h-5.28c-.63,0-1.14-.48-1.14-1.08V1.62c0-.6.51-1.08,1.14-1.08h5.28c.63,0,1.14.48,1.14,1.08v7.38c0,.6-.51,1.08-1.14,1.08Z"/>
          <path class="cls-1" d="M301.42,28.41h-5.28c-.63,0-1.14-.48-1.14-1.08v-13.12c0-.6.51-1.08,1.14-1.08h5.28c.63,0,1.14.48,1.14,1.08v13.12c0,.6-.51,1.08-1.14,1.08Z"/>
          <path class="cls-1" d="M322.8,85.19c-.32.55-1.06.72-1.61.39l-4.47-2.69c-.5-.3-.67-.91-.4-1.41.66-1.19,1.54-3.15,1.54-4.67v-32.58c0-.6-.51-1.08-1.14-1.08h-17.37c-.63,0-1.14.48-1.14,1.08v38.95c0,.6-.51,1.08-1.14,1.08h-5.28c-.63,0-1.14-.48-1.14-1.08v-46.11c0-.6.51-1.08,1.14-1.08h32.49c.63,0,1.14.48,1.14,1.08v39.74c0,3.38-1.67,6.74-2.62,8.38Z"/>
          <path class="cls-1" d="M319.15,28.41h-5.28c-.63,0-1.14-.48-1.14-1.08v-13.12c0-.6.51-1.08,1.14-1.08h5.28c.63,0,1.14.48,1.14,1.08v13.12c0,.6-.51,1.08-1.14,1.08Z"/>
          <path class="cls-1" d="M356.21,83.92h-18.69c-3.31,0-6-2.51-6-5.59v-45.17c0-.6.51-1.08,1.14-1.08h22.94c.63,0,1.14-.48,1.14-1.08v-2.65c0-.6-.51-1.08-1.14-1.08h-22.94c-.63,0-1.14-.48-1.14-1.08V3.51c0-.6.51-1.08,1.14-1.08h5.28c.63,0,1.14.48,1.14,1.08v15.53c0,.6.51,1.08,1.14,1.08h22.94c.63,0,1.14.48,1.14,1.08v16.97c0,.6-.51,1.08-1.14,1.08h-22.94c-.63,0-1.14.48-1.14,1.08v35.35c0,.6.51,1.08,1.14,1.08h15.99c1.54,0,3.78-.99,5.2-1.77.52-.28,1.17-.14,1.51.32l3,4.13c.37.51.21,1.22-.35,1.54-1.81,1.03-5.66,2.93-9.36,2.93Z"/>
        </g>
      </g>
    </g>
  </g>
</svg>